G75*
G70*
%OFA0B0*%
%FSLAX24Y24*%
%IPPOS*%
%LPD*%
%AMOC8*
5,1,8,0,0,1.08239X$1,22.5*
%
%ADD10C,0.0000*%
%ADD11R,0.0220X0.0500*%
%ADD12R,0.0500X0.0220*%
%ADD13R,0.0433X0.0394*%
%ADD14R,0.0315X0.0472*%
%ADD15R,0.0866X0.0551*%
%ADD16R,0.0354X0.0551*%
%ADD17R,0.0157X0.0102*%
%ADD18R,0.0945X0.0276*%
%ADD19R,0.0906X0.0591*%
%ADD20C,0.0080*%
%ADD21C,0.0400*%
D10*
X004223Y009163D02*
X004223Y009182D01*
X004223Y009163D02*
X004228Y008973D01*
X004241Y008784D01*
X004264Y008596D01*
X004295Y008409D01*
X004335Y008224D01*
X004384Y008041D01*
X004442Y007860D01*
X004508Y007683D01*
X004583Y007508D01*
X004666Y007338D01*
X004757Y007172D01*
X004855Y007010D01*
X004962Y006853D01*
X005075Y006701D01*
X005196Y006555D01*
X005323Y006414D01*
X005457Y006280D01*
X005598Y006153D01*
X005744Y006032D01*
X005896Y005919D01*
X006053Y005812D01*
X006214Y005714D01*
X006381Y005623D01*
X006551Y005540D01*
X006726Y005465D01*
X006903Y005399D01*
X007084Y005341D01*
X007267Y005292D01*
X007452Y005252D01*
X007639Y005221D01*
X007827Y005198D01*
X008016Y005185D01*
X008206Y005180D01*
X008243Y005180D01*
X008243Y005181D02*
X008432Y005186D01*
X008621Y005199D01*
X008809Y005222D01*
X008996Y005253D01*
X009181Y005293D01*
X009364Y005342D01*
X009545Y005400D01*
X009722Y005466D01*
X009896Y005541D01*
X010067Y005623D01*
X010233Y005714D01*
X010395Y005813D01*
X010552Y005919D01*
X010703Y006033D01*
X010849Y006153D01*
X010990Y006281D01*
X011123Y006414D01*
X011251Y006555D01*
X011371Y006701D01*
X011485Y006852D01*
X011591Y007009D01*
X011690Y007171D01*
X011781Y007337D01*
X011863Y007508D01*
X011938Y007682D01*
X012004Y007859D01*
X012062Y008040D01*
X012111Y008223D01*
X012151Y008408D01*
X012182Y008595D01*
X012205Y008783D01*
X012218Y008972D01*
X012223Y009161D01*
X012223Y009178D01*
X012218Y009368D01*
X012205Y009558D01*
X012182Y009748D01*
X012151Y009935D01*
X012110Y010122D01*
X012061Y010305D01*
X012003Y010487D01*
X011936Y010665D01*
X011861Y010840D01*
X011778Y011012D01*
X011687Y011179D01*
X011588Y011342D01*
X011481Y011499D01*
X011367Y011652D01*
X011246Y011799D01*
X011117Y011940D01*
X010983Y012074D01*
X010842Y012203D01*
X010695Y012324D01*
X010542Y012438D01*
X010385Y012545D01*
X010222Y012644D01*
X010055Y012735D01*
X009883Y012818D01*
X009708Y012893D01*
X009530Y012960D01*
X009348Y013018D01*
X009165Y013067D01*
X008978Y013108D01*
X008791Y013139D01*
X008601Y013162D01*
X008411Y013175D01*
X008221Y013180D01*
X008031Y013175D01*
X007841Y013162D01*
X007652Y013139D01*
X007464Y013108D01*
X007278Y013067D01*
X007095Y013018D01*
X006913Y012960D01*
X006735Y012894D01*
X006560Y012819D01*
X006389Y012736D01*
X006222Y012644D01*
X006060Y012545D01*
X005902Y012439D01*
X005750Y012325D01*
X005603Y012203D01*
X005462Y012075D01*
X005328Y011941D01*
X005200Y011800D01*
X005078Y011653D01*
X004964Y011501D01*
X004858Y011343D01*
X004759Y011181D01*
X004667Y011014D01*
X004584Y010843D01*
X004509Y010668D01*
X004443Y010490D01*
X004385Y010308D01*
X004336Y010125D01*
X004295Y009939D01*
X004264Y009751D01*
X004241Y009562D01*
X004228Y009372D01*
X004223Y009182D01*
D11*
X007991Y007960D03*
X008306Y007960D03*
X008621Y007960D03*
X008936Y007960D03*
X009250Y007960D03*
X009565Y007960D03*
X009880Y007960D03*
X010195Y007960D03*
X010195Y011340D03*
X009880Y011340D03*
X009565Y011340D03*
X009250Y011340D03*
X008936Y011340D03*
X008621Y011340D03*
X008306Y011340D03*
X007991Y011340D03*
D12*
X007403Y010753D03*
X007403Y010438D03*
X007403Y010123D03*
X007403Y009808D03*
X007403Y009493D03*
X007403Y009178D03*
X007403Y008863D03*
X007403Y008548D03*
X010783Y008548D03*
X010783Y008863D03*
X010783Y009178D03*
X010783Y009493D03*
X010783Y009808D03*
X010783Y010123D03*
X010783Y010438D03*
X010783Y010753D03*
D13*
X009538Y012165D03*
X008868Y012165D03*
D14*
G36*
X011155Y008045D02*
X011156Y007732D01*
X010685Y007731D01*
X010684Y008044D01*
X011155Y008045D01*
G37*
G36*
X011156Y007336D02*
X011157Y007023D01*
X010686Y007022D01*
X010685Y007335D01*
X011156Y007336D01*
G37*
X009892Y007110D03*
X009184Y007110D03*
G36*
X008460Y006691D02*
X008459Y006378D01*
X007988Y006379D01*
X007989Y006692D01*
X008460Y006691D01*
G37*
G36*
X008458Y005982D02*
X008457Y005669D01*
X007986Y005670D01*
X007987Y005983D01*
X008458Y005982D01*
G37*
D15*
X007787Y012160D03*
D16*
X006783Y012160D03*
D17*
X006888Y006458D03*
X007223Y006458D03*
X007558Y006458D03*
X007558Y005903D03*
X007223Y005903D03*
X006888Y005903D03*
X008888Y005903D03*
X009223Y005903D03*
X009558Y005903D03*
X009558Y006458D03*
X009223Y006458D03*
X008888Y006458D03*
D18*
X006295Y008295D03*
X006295Y008885D03*
X006295Y009476D03*
X006295Y010066D03*
D19*
X005725Y010873D03*
X005725Y007488D03*
D20*
X005123Y006930D02*
X005973Y006430D01*
X006823Y006430D01*
X006873Y006480D01*
X006888Y006458D01*
X006923Y006430D01*
X007223Y006430D01*
X007223Y006458D01*
X007223Y006430D02*
X007523Y006430D01*
X007558Y006458D01*
X007606Y006287D02*
X007686Y006287D01*
X007756Y006357D01*
X007756Y006559D01*
X007686Y006629D01*
X007429Y006629D01*
X007390Y006590D01*
X007351Y006629D01*
X007095Y006629D01*
X007056Y006590D01*
X007056Y006590D01*
X007017Y006629D01*
X006950Y006629D01*
X006939Y006640D01*
X006888Y006640D01*
X006837Y006650D01*
X006823Y006640D01*
X006807Y006640D01*
X006795Y006629D01*
X006760Y006629D01*
X006721Y006590D01*
X006017Y006590D01*
X005283Y007022D01*
X005283Y007072D01*
X006227Y007072D01*
X006297Y007143D01*
X006297Y007770D01*
X007761Y007770D01*
X007761Y007661D01*
X007831Y007590D01*
X008146Y007590D01*
X008163Y007590D01*
X008163Y007261D01*
X008142Y007252D01*
X008052Y007162D01*
X008003Y007044D01*
X008003Y006917D01*
X008046Y006812D01*
X007938Y006813D01*
X007868Y006743D01*
X007867Y006328D01*
X007937Y006258D01*
X008509Y006257D01*
X008579Y006327D01*
X008580Y006741D01*
X008558Y006763D01*
X008594Y006799D01*
X008643Y006917D01*
X008643Y007044D01*
X008594Y007162D01*
X008504Y007252D01*
X008483Y007261D01*
X008483Y007590D01*
X008776Y007590D01*
X009062Y007590D01*
X009082Y007570D01*
X009235Y007570D01*
X009235Y007945D01*
X009265Y007945D01*
X009265Y007570D01*
X009418Y007570D01*
X009438Y007590D01*
X009713Y007590D01*
X009713Y007467D01*
X009685Y007467D01*
X009615Y007396D01*
X009615Y006825D01*
X009685Y006754D01*
X010099Y006754D01*
X010170Y006825D01*
X010170Y007396D01*
X010099Y007467D01*
X010033Y007467D01*
X010033Y007590D01*
X010036Y007590D01*
X010355Y007590D01*
X010425Y007661D01*
X010425Y007720D01*
X010564Y007720D01*
X010564Y007680D01*
X010635Y007610D01*
X011207Y007611D01*
X011277Y007681D01*
X011276Y008096D01*
X011206Y008166D01*
X010634Y008165D01*
X010564Y008095D01*
X010564Y008040D01*
X010425Y008040D01*
X010425Y008260D01*
X010355Y008330D01*
X010036Y008330D01*
X009721Y008330D01*
X009438Y008330D01*
X009418Y008350D01*
X009265Y008350D01*
X009265Y007976D01*
X009235Y007976D01*
X009235Y008350D01*
X009082Y008350D01*
X009062Y008330D01*
X008776Y008330D01*
X008483Y008330D01*
X008483Y008414D01*
X009383Y009314D01*
X009383Y009447D01*
X009383Y010970D01*
X009410Y010970D01*
X009725Y010970D01*
X010040Y010970D01*
X010355Y010970D01*
X010425Y011041D01*
X010425Y011640D01*
X010355Y011710D01*
X010040Y011710D01*
X009725Y011710D01*
X009410Y011710D01*
X009333Y011710D01*
X009333Y011829D01*
X009498Y011829D01*
X009498Y012125D01*
X009578Y012125D01*
X009578Y012126D02*
X009578Y012205D01*
X009894Y012205D01*
X009894Y012420D01*
X009812Y012502D01*
X009578Y012502D01*
X009578Y012206D01*
X009498Y012206D01*
X009498Y012502D01*
X009263Y012502D01*
X009189Y012428D01*
X009135Y012482D01*
X008602Y012482D01*
X008532Y012412D01*
X008532Y012340D01*
X008340Y012340D01*
X008340Y012486D01*
X008270Y012556D01*
X007304Y012556D01*
X007234Y012486D01*
X007234Y011835D01*
X007304Y011765D01*
X008270Y011765D01*
X008340Y011835D01*
X008340Y012020D01*
X008532Y012020D01*
X008532Y011919D01*
X008602Y011849D01*
X009013Y011849D01*
X009013Y011730D01*
X008951Y011730D01*
X008951Y011356D01*
X008920Y011356D01*
X008920Y011730D01*
X008767Y011730D01*
X008747Y011710D01*
X008465Y011710D01*
X008150Y011710D01*
X007831Y011710D01*
X007761Y011640D01*
X007761Y011340D01*
X007583Y011340D01*
X007583Y011397D01*
X007383Y011597D01*
X007289Y011690D01*
X006389Y011690D01*
X006257Y011690D01*
X006163Y011597D01*
X006163Y011289D01*
X005222Y011289D01*
X005152Y011218D01*
X005152Y010528D01*
X005222Y010458D01*
X005363Y010458D01*
X005363Y009397D01*
X005363Y009293D01*
X005304Y009352D01*
X005187Y009400D01*
X005059Y009400D01*
X004942Y009352D01*
X004852Y009262D01*
X004803Y009144D01*
X004803Y009017D01*
X004852Y008899D01*
X004942Y008809D01*
X004963Y008800D01*
X004963Y007123D01*
X004723Y007539D01*
X004494Y008169D01*
X004378Y008828D01*
X004363Y009163D01*
X004363Y009182D01*
X004378Y009519D01*
X004494Y010181D01*
X004724Y010813D01*
X005061Y011395D01*
X005493Y011910D01*
X006008Y012343D01*
X006591Y012679D01*
X007222Y012909D01*
X007885Y013026D01*
X008221Y013040D01*
X008558Y013026D01*
X009221Y012909D01*
X009853Y012679D01*
X010436Y012342D01*
X010952Y011909D01*
X011385Y011394D01*
X011721Y010811D01*
X011951Y010178D01*
X012068Y009515D01*
X012083Y009179D01*
X012083Y009161D01*
X012068Y008826D01*
X011952Y008167D01*
X011723Y007538D01*
X011388Y006958D01*
X010958Y006445D01*
X010445Y006015D01*
X009866Y005680D01*
X009237Y005451D01*
X008577Y005335D01*
X008243Y005320D01*
X008206Y005320D01*
X007871Y005335D01*
X007211Y005451D01*
X006582Y005680D01*
X006002Y006015D01*
X005489Y006446D01*
X005349Y006612D01*
X005874Y006303D01*
X005907Y006270D01*
X005929Y006270D01*
X005949Y006259D01*
X005993Y006270D01*
X006867Y006270D01*
X006875Y006264D01*
X006932Y006270D01*
X007157Y006270D01*
X007289Y006270D01*
X007514Y006270D01*
X007571Y006264D01*
X007579Y006270D01*
X007589Y006270D01*
X007606Y006287D01*
X007599Y006280D02*
X007915Y006280D01*
X007867Y006359D02*
X007756Y006359D01*
X007756Y006437D02*
X007867Y006437D01*
X007867Y006516D02*
X007756Y006516D01*
X007721Y006594D02*
X007867Y006594D01*
X007868Y006673D02*
X005877Y006673D01*
X006010Y006594D02*
X006725Y006594D01*
X007052Y006594D02*
X007060Y006594D01*
X007386Y006594D02*
X007394Y006594D01*
X007390Y006590D02*
X007390Y006590D01*
X007351Y006074D02*
X007095Y006074D01*
X007056Y006035D01*
X007017Y006074D01*
X006760Y006074D01*
X006690Y006004D01*
X006690Y005802D01*
X006760Y005732D01*
X007017Y005732D01*
X007056Y005771D01*
X007095Y005732D01*
X007351Y005732D01*
X007390Y005771D01*
X007429Y005732D01*
X007495Y005732D01*
X007507Y005720D01*
X007558Y005720D01*
X007609Y005711D01*
X007622Y005720D01*
X007866Y005720D01*
X007866Y005620D01*
X007936Y005549D01*
X008508Y005548D01*
X008578Y005618D01*
X008579Y006033D01*
X008509Y006103D01*
X007937Y006104D01*
X007873Y006040D01*
X007720Y006040D01*
X007686Y006074D01*
X007429Y006074D01*
X007390Y006035D01*
X007351Y006074D01*
X007381Y006044D02*
X007400Y006044D01*
X007558Y005903D02*
X007573Y005880D01*
X008173Y005880D01*
X008173Y005830D01*
X008222Y005826D01*
X008578Y005809D02*
X008670Y005809D01*
X008670Y005794D02*
X008752Y005712D01*
X008888Y005712D01*
X008888Y005902D01*
X008889Y005902D01*
X008889Y005712D01*
X009025Y005712D01*
X009056Y005742D01*
X009086Y005712D01*
X009223Y005712D01*
X009360Y005712D01*
X009390Y005742D01*
X009421Y005712D01*
X009557Y005712D01*
X009557Y005902D01*
X009558Y005902D01*
X009558Y005712D01*
X009694Y005712D01*
X009776Y005794D01*
X009776Y005903D01*
X009776Y006012D01*
X009694Y006094D01*
X009558Y006094D01*
X009558Y005903D01*
X009776Y005903D01*
X009558Y005903D01*
X009558Y005903D01*
X009557Y005903D01*
X009557Y005903D01*
X009339Y005903D01*
X009223Y005903D01*
X009223Y005903D01*
X009223Y006094D01*
X009360Y006094D01*
X009390Y006063D01*
X009421Y006094D01*
X009557Y006094D01*
X009557Y005903D01*
X009339Y005903D01*
X009223Y005903D01*
X009223Y006094D01*
X009086Y006094D01*
X009056Y006063D01*
X009025Y006094D01*
X008889Y006094D01*
X008889Y005903D01*
X009004Y005903D01*
X009223Y005903D01*
X009223Y005903D01*
X009223Y005903D01*
X009223Y005902D02*
X009223Y005712D01*
X009223Y005902D01*
X009223Y005902D01*
X009223Y005903D02*
X009004Y005903D01*
X008889Y005903D01*
X008889Y005903D01*
X008888Y005903D01*
X008888Y005903D01*
X008670Y005903D01*
X008670Y006012D01*
X008752Y006094D01*
X008888Y006094D01*
X008888Y005903D01*
X008670Y005903D01*
X008670Y005794D01*
X008733Y005730D02*
X008578Y005730D01*
X008578Y005652D02*
X009787Y005652D01*
X009713Y005730D02*
X009952Y005730D01*
X010088Y005809D02*
X009776Y005809D01*
X009776Y005887D02*
X010224Y005887D01*
X010360Y005966D02*
X009776Y005966D01*
X009744Y006044D02*
X010481Y006044D01*
X010574Y006123D02*
X005873Y006123D01*
X005780Y006202D02*
X010668Y006202D01*
X010761Y006280D02*
X008532Y006280D01*
X008579Y006359D02*
X008690Y006359D01*
X008690Y006357D02*
X008760Y006287D01*
X009017Y006287D01*
X009050Y006320D01*
X009061Y006320D01*
X009095Y006287D01*
X009351Y006287D01*
X009390Y006326D01*
X009429Y006287D01*
X009686Y006287D01*
X009697Y006298D01*
X010266Y006298D01*
X010360Y006392D01*
X010870Y006902D01*
X011208Y006902D01*
X011278Y006973D01*
X011277Y007387D01*
X011207Y007457D01*
X010635Y007456D01*
X010565Y007386D01*
X010566Y007050D01*
X010134Y006618D01*
X009697Y006618D01*
X009686Y006629D01*
X009429Y006629D01*
X009390Y006590D01*
X009351Y006629D01*
X009183Y006629D01*
X009183Y006754D01*
X009391Y006754D01*
X009461Y006825D01*
X009461Y007396D01*
X009391Y007467D01*
X008976Y007467D01*
X008906Y007396D01*
X008906Y007040D01*
X008863Y006997D01*
X008863Y006864D01*
X008863Y006640D01*
X008857Y006640D01*
X008845Y006629D01*
X008760Y006629D01*
X008690Y006559D01*
X008690Y006357D01*
X008690Y006437D02*
X008580Y006437D01*
X008580Y006516D02*
X008690Y006516D01*
X008725Y006594D02*
X008580Y006594D01*
X008580Y006673D02*
X008863Y006673D01*
X008863Y006751D02*
X008570Y006751D01*
X008607Y006830D02*
X008863Y006830D01*
X008863Y006908D02*
X008639Y006908D01*
X008643Y006987D02*
X008863Y006987D01*
X008906Y007066D02*
X008634Y007066D01*
X008602Y007144D02*
X008906Y007144D01*
X008906Y007223D02*
X008533Y007223D01*
X008483Y007301D02*
X008906Y007301D01*
X008906Y007380D02*
X008483Y007380D01*
X008483Y007458D02*
X008968Y007458D01*
X009235Y007615D02*
X009265Y007615D01*
X009265Y007694D02*
X009235Y007694D01*
X009235Y007772D02*
X009265Y007772D01*
X009265Y007851D02*
X009235Y007851D01*
X009235Y007929D02*
X009265Y007929D01*
X009265Y008008D02*
X009235Y008008D01*
X009235Y008087D02*
X009265Y008087D01*
X009265Y008165D02*
X009235Y008165D01*
X009235Y008244D02*
X009265Y008244D01*
X009265Y008322D02*
X009235Y008322D01*
X008941Y008872D02*
X009921Y008872D01*
X009903Y008917D02*
X009952Y008799D01*
X010042Y008709D01*
X010159Y008660D01*
X010287Y008660D01*
X010404Y008709D01*
X010413Y008718D01*
X010413Y008703D01*
X010413Y008388D01*
X010483Y008318D01*
X011083Y008318D01*
X011153Y008388D01*
X011153Y008703D01*
X011153Y009018D01*
X011153Y009333D01*
X011153Y009555D01*
X011259Y009510D01*
X011387Y009510D01*
X011504Y009559D01*
X011594Y009649D01*
X011643Y009767D01*
X011643Y009894D01*
X011594Y010012D01*
X011504Y010102D01*
X011387Y010150D01*
X011259Y010150D01*
X011153Y010106D01*
X011153Y010278D01*
X011153Y010593D01*
X011153Y010913D01*
X011083Y010983D01*
X010483Y010983D01*
X010413Y010913D01*
X010413Y010593D01*
X010413Y010278D01*
X010413Y009963D01*
X010413Y009743D01*
X010404Y009752D01*
X010287Y009800D01*
X010159Y009800D01*
X010042Y009752D01*
X009952Y009662D01*
X009903Y009544D01*
X009903Y009417D01*
X009952Y009299D01*
X010020Y009230D01*
X009952Y009162D01*
X009903Y009044D01*
X009903Y008917D01*
X009903Y008951D02*
X009019Y008951D01*
X009098Y009029D02*
X009903Y009029D01*
X009929Y009108D02*
X009176Y009108D01*
X009255Y009186D02*
X009976Y009186D01*
X009986Y009265D02*
X009334Y009265D01*
X009383Y009343D02*
X009933Y009343D01*
X009903Y009422D02*
X009383Y009422D01*
X009383Y009500D02*
X009903Y009500D01*
X009917Y009579D02*
X009383Y009579D01*
X009383Y009657D02*
X009950Y009657D01*
X010026Y009736D02*
X009383Y009736D01*
X009383Y009815D02*
X010413Y009815D01*
X010413Y009893D02*
X009383Y009893D01*
X009383Y009972D02*
X010413Y009972D01*
X010413Y010050D02*
X009383Y010050D01*
X009383Y010129D02*
X010413Y010129D01*
X010413Y010207D02*
X009383Y010207D01*
X009383Y010286D02*
X010413Y010286D01*
X010413Y010364D02*
X009383Y010364D01*
X009383Y010443D02*
X010413Y010443D01*
X010413Y010521D02*
X009383Y010521D01*
X009383Y010600D02*
X010413Y010600D01*
X010413Y010679D02*
X009383Y010679D01*
X009383Y010757D02*
X010413Y010757D01*
X010413Y010836D02*
X009383Y010836D01*
X009383Y010914D02*
X010415Y010914D01*
X010377Y010993D02*
X011616Y010993D01*
X011571Y011071D02*
X010425Y011071D01*
X010425Y011150D02*
X011525Y011150D01*
X011480Y011228D02*
X010425Y011228D01*
X010425Y011307D02*
X011435Y011307D01*
X011389Y011385D02*
X010425Y011385D01*
X010425Y011464D02*
X011326Y011464D01*
X011260Y011542D02*
X010425Y011542D01*
X010425Y011621D02*
X011194Y011621D01*
X011128Y011700D02*
X010366Y011700D01*
X010734Y012092D02*
X009894Y012092D01*
X009894Y012126D02*
X009578Y012126D01*
X009578Y012125D02*
X009578Y011829D01*
X009812Y011829D01*
X009894Y011911D01*
X009894Y012126D01*
X009894Y012014D02*
X010827Y012014D01*
X010921Y011935D02*
X009894Y011935D01*
X009840Y011857D02*
X010996Y011857D01*
X011062Y011778D02*
X009333Y011778D01*
X009498Y011857D02*
X009578Y011857D01*
X009578Y011935D02*
X009498Y011935D01*
X009498Y012014D02*
X009578Y012014D01*
X009578Y012092D02*
X009498Y012092D01*
X009578Y012171D02*
X010640Y012171D01*
X010547Y012249D02*
X009894Y012249D01*
X009894Y012328D02*
X010453Y012328D01*
X010325Y012406D02*
X009894Y012406D01*
X009829Y012485D02*
X010189Y012485D01*
X010052Y012564D02*
X007031Y012564D01*
X007018Y012576D02*
X006823Y012576D01*
X006823Y012201D01*
X006743Y012201D01*
X006743Y012576D01*
X006548Y012576D01*
X006466Y012494D01*
X006466Y012200D01*
X006743Y012200D01*
X006743Y012121D01*
X006466Y012121D01*
X006466Y011827D01*
X006548Y011745D01*
X006743Y011745D01*
X006743Y012120D01*
X006823Y012120D01*
X006823Y011745D01*
X007018Y011745D01*
X007100Y011827D01*
X007100Y012121D01*
X006823Y012121D01*
X006823Y012200D01*
X007100Y012200D01*
X007100Y012494D01*
X007018Y012576D01*
X007100Y012485D02*
X007234Y012485D01*
X007234Y012406D02*
X007100Y012406D01*
X007100Y012328D02*
X007234Y012328D01*
X007234Y012249D02*
X007100Y012249D01*
X007234Y012171D02*
X006823Y012171D01*
X006823Y012249D02*
X006743Y012249D01*
X006743Y012171D02*
X005803Y012171D01*
X005710Y012092D02*
X006466Y012092D01*
X006466Y012014D02*
X005616Y012014D01*
X005522Y011935D02*
X006466Y011935D01*
X006466Y011857D02*
X005448Y011857D01*
X005382Y011778D02*
X006515Y011778D01*
X006323Y011530D02*
X006323Y010430D01*
X005523Y010430D01*
X005523Y009330D01*
X006273Y009330D01*
X006273Y009430D01*
X006295Y009476D01*
X006273Y009030D02*
X006273Y008930D01*
X006295Y008885D01*
X006273Y009030D02*
X005523Y009030D01*
X005523Y007930D01*
X007973Y007930D01*
X007991Y007960D01*
X007761Y008090D02*
X006871Y008090D01*
X006888Y008107D01*
X006888Y008120D01*
X006939Y008120D01*
X007033Y008214D01*
X007033Y008564D01*
X007033Y008564D01*
X007033Y008388D01*
X007103Y008318D01*
X007703Y008318D01*
X007773Y008388D01*
X007773Y008420D01*
X007907Y008420D01*
X008039Y008420D01*
X008133Y008514D01*
X008133Y010664D01*
X008133Y010797D01*
X008083Y010847D01*
X007989Y010940D01*
X007933Y010940D01*
X007933Y010970D01*
X008150Y010970D01*
X008465Y010970D01*
X008747Y010970D01*
X008767Y010950D01*
X008920Y010950D01*
X008920Y011325D01*
X008951Y011325D01*
X008951Y010950D01*
X009063Y010950D01*
X009063Y009447D01*
X008257Y008640D01*
X008163Y008547D01*
X008163Y008330D01*
X008146Y008330D01*
X007831Y008330D01*
X007761Y008260D01*
X007761Y008090D01*
X007761Y008165D02*
X006984Y008165D01*
X007033Y008244D02*
X007761Y008244D01*
X007707Y008322D02*
X007823Y008322D01*
X007773Y008401D02*
X008163Y008401D01*
X008163Y008479D02*
X008098Y008479D01*
X008133Y008558D02*
X008174Y008558D01*
X008133Y008636D02*
X008253Y008636D01*
X008331Y008715D02*
X008133Y008715D01*
X008133Y008793D02*
X008410Y008793D01*
X008488Y008872D02*
X008133Y008872D01*
X008133Y008951D02*
X008567Y008951D01*
X008645Y009029D02*
X008133Y009029D01*
X008133Y009108D02*
X008724Y009108D01*
X008802Y009186D02*
X008133Y009186D01*
X008133Y009265D02*
X008881Y009265D01*
X008960Y009343D02*
X008133Y009343D01*
X008133Y009422D02*
X009038Y009422D01*
X009063Y009500D02*
X008133Y009500D01*
X008133Y009579D02*
X009063Y009579D01*
X009063Y009657D02*
X008133Y009657D01*
X008133Y009736D02*
X009063Y009736D01*
X009063Y009815D02*
X008133Y009815D01*
X008133Y009893D02*
X009063Y009893D01*
X009063Y009972D02*
X008133Y009972D01*
X008133Y010050D02*
X009063Y010050D01*
X009063Y010129D02*
X008133Y010129D01*
X008133Y010207D02*
X009063Y010207D01*
X009063Y010286D02*
X008133Y010286D01*
X008133Y010364D02*
X009063Y010364D01*
X009063Y010443D02*
X008133Y010443D01*
X008133Y010521D02*
X009063Y010521D01*
X009063Y010600D02*
X008133Y010600D01*
X008133Y010679D02*
X009063Y010679D01*
X009063Y010757D02*
X008133Y010757D01*
X008094Y010836D02*
X009063Y010836D01*
X009063Y010914D02*
X008016Y010914D01*
X007923Y010780D02*
X007773Y010780D01*
X007773Y010980D01*
X007723Y010980D01*
X007723Y011180D01*
X007423Y011180D01*
X007423Y011330D01*
X007223Y011530D01*
X006323Y011530D01*
X006163Y011542D02*
X005184Y011542D01*
X005118Y011464D02*
X006163Y011464D01*
X006163Y011385D02*
X005055Y011385D01*
X005010Y011307D02*
X006163Y011307D01*
X006187Y011621D02*
X005250Y011621D01*
X005316Y011700D02*
X007820Y011700D01*
X007761Y011621D02*
X007359Y011621D01*
X007437Y011542D02*
X007761Y011542D01*
X007761Y011464D02*
X007516Y011464D01*
X007583Y011385D02*
X007761Y011385D01*
X007923Y010780D02*
X007973Y010730D01*
X007973Y008580D01*
X007423Y008580D01*
X007403Y008548D01*
X007373Y008830D02*
X007403Y008863D01*
X007373Y008830D02*
X006923Y008830D01*
X006923Y008680D01*
X006873Y008680D01*
X006873Y008280D01*
X006323Y008280D01*
X006295Y008295D01*
X006297Y007694D02*
X007761Y007694D01*
X007806Y007615D02*
X006297Y007615D01*
X006297Y007537D02*
X008163Y007537D01*
X008163Y007458D02*
X006297Y007458D01*
X006297Y007380D02*
X008163Y007380D01*
X008163Y007301D02*
X006297Y007301D01*
X006297Y007223D02*
X008113Y007223D01*
X008044Y007144D02*
X006297Y007144D01*
X005780Y006359D02*
X005593Y006359D01*
X005646Y006437D02*
X005499Y006437D01*
X005513Y006516D02*
X005430Y006516D01*
X005379Y006594D02*
X005364Y006594D01*
X005476Y006908D02*
X008006Y006908D01*
X008003Y006987D02*
X005342Y006987D01*
X005283Y007066D02*
X008012Y007066D01*
X008039Y006830D02*
X005609Y006830D01*
X005743Y006751D02*
X007877Y006751D01*
X008224Y006535D02*
X008273Y006580D01*
X008323Y006630D01*
X008323Y006980D01*
X008323Y007930D01*
X008306Y007960D01*
X008323Y007980D01*
X008323Y008480D01*
X009223Y009380D01*
X009223Y011330D01*
X009250Y011340D01*
X009223Y011380D01*
X009173Y011430D01*
X009173Y012080D01*
X009123Y012130D01*
X008873Y012130D01*
X008868Y012165D01*
X008823Y012180D01*
X007823Y012180D01*
X007787Y012160D01*
X007234Y012092D02*
X007100Y012092D01*
X007100Y012014D02*
X007234Y012014D01*
X007234Y011935D02*
X007100Y011935D01*
X007100Y011857D02*
X007234Y011857D01*
X007291Y011778D02*
X007051Y011778D01*
X006823Y011778D02*
X006743Y011778D01*
X006743Y011857D02*
X006823Y011857D01*
X006823Y011935D02*
X006743Y011935D01*
X006743Y012014D02*
X006823Y012014D01*
X006823Y012092D02*
X006743Y012092D01*
X006743Y012328D02*
X006823Y012328D01*
X006823Y012406D02*
X006743Y012406D01*
X006743Y012485D02*
X006823Y012485D01*
X006823Y012564D02*
X006743Y012564D01*
X006705Y012721D02*
X009738Y012721D01*
X009916Y012642D02*
X006527Y012642D01*
X006535Y012564D02*
X006391Y012564D01*
X006466Y012485D02*
X006254Y012485D01*
X006118Y012406D02*
X006466Y012406D01*
X006466Y012328D02*
X005990Y012328D01*
X005897Y012249D02*
X006466Y012249D01*
X006921Y012799D02*
X009522Y012799D01*
X009306Y012878D02*
X007136Y012878D01*
X007490Y012956D02*
X008952Y012956D01*
X009246Y012485D02*
X008340Y012485D01*
X008340Y012406D02*
X008532Y012406D01*
X008532Y012014D02*
X008340Y012014D01*
X008340Y011935D02*
X008532Y011935D01*
X008594Y011857D02*
X008340Y011857D01*
X008283Y011778D02*
X009013Y011778D01*
X008951Y011700D02*
X008920Y011700D01*
X008920Y011621D02*
X008951Y011621D01*
X008951Y011542D02*
X008920Y011542D01*
X008920Y011464D02*
X008951Y011464D01*
X008951Y011385D02*
X008920Y011385D01*
X008920Y011307D02*
X008951Y011307D01*
X008951Y011228D02*
X008920Y011228D01*
X008920Y011150D02*
X008951Y011150D01*
X008951Y011071D02*
X008920Y011071D01*
X008920Y010993D02*
X008951Y010993D01*
X009498Y012249D02*
X009578Y012249D01*
X009578Y012328D02*
X009498Y012328D01*
X009498Y012406D02*
X009578Y012406D01*
X009578Y012485D02*
X009498Y012485D01*
X008351Y013035D02*
X008091Y013035D01*
X008221Y013040D02*
X008221Y013040D01*
X007073Y011180D02*
X006523Y010630D01*
X006523Y010180D01*
X006423Y010080D01*
X006323Y010080D01*
X006295Y010066D01*
X006873Y010480D02*
X007023Y010480D01*
X007023Y009280D01*
X007073Y009280D01*
X007073Y009230D01*
X007373Y009230D01*
X007373Y009180D01*
X007403Y009178D01*
X007033Y008558D02*
X007033Y008558D01*
X007033Y008479D02*
X007033Y008479D01*
X007033Y008401D02*
X007033Y008401D01*
X007033Y008322D02*
X007099Y008322D01*
X008483Y008401D02*
X010413Y008401D01*
X010413Y008479D02*
X008548Y008479D01*
X008627Y008558D02*
X010413Y008558D01*
X010413Y008636D02*
X008705Y008636D01*
X008784Y008715D02*
X010036Y008715D01*
X009957Y008793D02*
X008862Y008793D01*
X008483Y007537D02*
X009713Y007537D01*
X009677Y007458D02*
X009399Y007458D01*
X009461Y007380D02*
X009615Y007380D01*
X009615Y007301D02*
X009461Y007301D01*
X009461Y007223D02*
X009615Y007223D01*
X009615Y007144D02*
X009461Y007144D01*
X009461Y007066D02*
X009615Y007066D01*
X009615Y006987D02*
X009461Y006987D01*
X009461Y006908D02*
X009615Y006908D01*
X009615Y006830D02*
X009461Y006830D01*
X009394Y006594D02*
X009386Y006594D01*
X009558Y006458D02*
X010200Y006458D01*
X010921Y007179D01*
X010565Y007144D02*
X010170Y007144D01*
X010170Y007066D02*
X010565Y007066D01*
X010503Y006987D02*
X010170Y006987D01*
X010170Y006908D02*
X010424Y006908D01*
X010346Y006830D02*
X010170Y006830D01*
X010267Y006751D02*
X009183Y006751D01*
X009183Y006673D02*
X010189Y006673D01*
X010327Y006359D02*
X010855Y006359D01*
X010949Y006437D02*
X010406Y006437D01*
X010484Y006516D02*
X011017Y006516D01*
X011083Y006594D02*
X010563Y006594D01*
X010641Y006673D02*
X011149Y006673D01*
X011215Y006751D02*
X010720Y006751D01*
X010798Y006830D02*
X011281Y006830D01*
X011214Y006908D02*
X011347Y006908D01*
X011405Y006987D02*
X011278Y006987D01*
X011278Y007066D02*
X011451Y007066D01*
X011496Y007144D02*
X011278Y007144D01*
X011278Y007223D02*
X011541Y007223D01*
X011587Y007301D02*
X011277Y007301D01*
X011277Y007380D02*
X011632Y007380D01*
X011677Y007458D02*
X010108Y007458D01*
X010170Y007380D02*
X010565Y007380D01*
X010565Y007301D02*
X010170Y007301D01*
X010170Y007223D02*
X010565Y007223D01*
X010629Y007615D02*
X010380Y007615D01*
X010425Y007694D02*
X010564Y007694D01*
X010873Y007880D02*
X010223Y007880D01*
X010223Y007930D01*
X010195Y007960D01*
X010425Y008087D02*
X010564Y008087D01*
X010425Y008165D02*
X010748Y008165D01*
X010873Y007880D02*
X010920Y007888D01*
X011277Y007851D02*
X011837Y007851D01*
X011809Y007772D02*
X011277Y007772D01*
X011277Y007694D02*
X011780Y007694D01*
X011751Y007615D02*
X011211Y007615D01*
X011276Y007929D02*
X011866Y007929D01*
X011894Y008008D02*
X011276Y008008D01*
X011276Y008087D02*
X011923Y008087D01*
X011952Y008165D02*
X011207Y008165D01*
X011087Y008322D02*
X011980Y008322D01*
X011966Y008244D02*
X010425Y008244D01*
X010479Y008322D02*
X010363Y008322D01*
X010410Y008715D02*
X010413Y008715D01*
X010223Y008980D02*
X010223Y009130D01*
X010773Y009130D01*
X010783Y009178D01*
X010773Y009480D02*
X010783Y009493D01*
X010773Y009480D02*
X010223Y009480D01*
X010783Y009808D02*
X010823Y009830D01*
X011323Y009830D01*
X011153Y009500D02*
X012069Y009500D01*
X012072Y009422D02*
X011153Y009422D01*
X011153Y009343D02*
X012076Y009343D01*
X012079Y009265D02*
X011153Y009265D01*
X011153Y009186D02*
X012083Y009186D01*
X012081Y009108D02*
X011153Y009108D01*
X011153Y009029D02*
X012077Y009029D01*
X012074Y008951D02*
X011153Y008951D01*
X011153Y008872D02*
X012070Y008872D01*
X012063Y008793D02*
X011153Y008793D01*
X011153Y008715D02*
X012049Y008715D01*
X012035Y008636D02*
X011153Y008636D01*
X011153Y008558D02*
X012021Y008558D01*
X012007Y008479D02*
X011153Y008479D01*
X011153Y008401D02*
X011993Y008401D01*
X011723Y007537D02*
X010033Y007537D01*
X009873Y007930D02*
X009873Y007130D01*
X009892Y007110D01*
X009873Y007930D02*
X009880Y007960D01*
X009184Y007110D02*
X009173Y007080D01*
X009173Y006930D01*
X009023Y006930D01*
X009023Y006480D01*
X008923Y006480D01*
X008888Y006458D01*
X008888Y006044D02*
X008889Y006044D01*
X008888Y005966D02*
X008889Y005966D01*
X008888Y005887D02*
X008889Y005887D01*
X008888Y005809D02*
X008889Y005809D01*
X008888Y005730D02*
X008889Y005730D01*
X009044Y005730D02*
X009068Y005730D01*
X009223Y005730D02*
X009223Y005730D01*
X009223Y005809D02*
X009223Y005809D01*
X009223Y005887D02*
X009223Y005887D01*
X009223Y005966D02*
X009223Y005966D01*
X009223Y006044D02*
X009223Y006044D01*
X009557Y006044D02*
X009558Y006044D01*
X009557Y005966D02*
X009558Y005966D01*
X009557Y005887D02*
X009558Y005887D01*
X009557Y005809D02*
X009558Y005809D01*
X009557Y005730D02*
X009558Y005730D01*
X009402Y005730D02*
X009378Y005730D01*
X009356Y005495D02*
X007092Y005495D01*
X006877Y005573D02*
X007912Y005573D01*
X007866Y005652D02*
X006661Y005652D01*
X006690Y005809D02*
X006359Y005809D01*
X006223Y005887D02*
X006690Y005887D01*
X006690Y005966D02*
X006087Y005966D01*
X005967Y006044D02*
X006730Y006044D01*
X007046Y006044D02*
X007065Y006044D01*
X007497Y005730D02*
X006495Y005730D01*
X005897Y006280D02*
X005686Y006280D01*
X005123Y006930D02*
X005123Y009080D01*
X005313Y009343D02*
X005363Y009343D01*
X005363Y009422D02*
X004373Y009422D01*
X004377Y009500D02*
X005363Y009500D01*
X005363Y009579D02*
X004388Y009579D01*
X004402Y009657D02*
X005363Y009657D01*
X005363Y009736D02*
X004416Y009736D01*
X004430Y009815D02*
X005363Y009815D01*
X005363Y009893D02*
X004444Y009893D01*
X004457Y009972D02*
X005363Y009972D01*
X005363Y010050D02*
X004471Y010050D01*
X004485Y010129D02*
X005363Y010129D01*
X005363Y010207D02*
X004504Y010207D01*
X004533Y010286D02*
X005363Y010286D01*
X005363Y010364D02*
X004561Y010364D01*
X004590Y010443D02*
X005363Y010443D01*
X005159Y010521D02*
X004618Y010521D01*
X004647Y010600D02*
X005152Y010600D01*
X005152Y010679D02*
X004675Y010679D01*
X004704Y010757D02*
X005152Y010757D01*
X005152Y010836D02*
X004737Y010836D01*
X004783Y010914D02*
X005152Y010914D01*
X005152Y010993D02*
X004828Y010993D01*
X004874Y011071D02*
X005152Y011071D01*
X005152Y011150D02*
X004919Y011150D01*
X004964Y011228D02*
X005162Y011228D01*
X004933Y009343D02*
X004370Y009343D01*
X004367Y009265D02*
X004855Y009265D01*
X004820Y009186D02*
X004363Y009186D01*
X004365Y009108D02*
X004803Y009108D01*
X004803Y009029D02*
X004369Y009029D01*
X004372Y008951D02*
X004830Y008951D01*
X004879Y008872D02*
X004376Y008872D01*
X004384Y008793D02*
X004963Y008793D01*
X004963Y008715D02*
X004398Y008715D01*
X004411Y008636D02*
X004963Y008636D01*
X004963Y008558D02*
X004425Y008558D01*
X004439Y008479D02*
X004963Y008479D01*
X004963Y008401D02*
X004453Y008401D01*
X004467Y008322D02*
X004963Y008322D01*
X004963Y008244D02*
X004481Y008244D01*
X004495Y008165D02*
X004963Y008165D01*
X004963Y008087D02*
X004524Y008087D01*
X004552Y008008D02*
X004963Y008008D01*
X004963Y007929D02*
X004581Y007929D01*
X004610Y007851D02*
X004963Y007851D01*
X004963Y007772D02*
X004638Y007772D01*
X004667Y007694D02*
X004963Y007694D01*
X004963Y007615D02*
X004695Y007615D01*
X004724Y007537D02*
X004963Y007537D01*
X004963Y007458D02*
X004770Y007458D01*
X004815Y007380D02*
X004963Y007380D01*
X004963Y007301D02*
X004860Y007301D01*
X004906Y007223D02*
X004963Y007223D01*
X004951Y007144D02*
X004963Y007144D01*
X007411Y005416D02*
X009037Y005416D01*
X008592Y005338D02*
X007857Y005338D01*
X007877Y006044D02*
X007716Y006044D01*
X008533Y005573D02*
X009571Y005573D01*
X008670Y005887D02*
X008579Y005887D01*
X008579Y005966D02*
X008670Y005966D01*
X008702Y006044D02*
X008567Y006044D01*
X011524Y009579D02*
X012057Y009579D01*
X012043Y009657D02*
X011598Y009657D01*
X011630Y009736D02*
X012029Y009736D01*
X012015Y009815D02*
X011643Y009815D01*
X011643Y009893D02*
X012002Y009893D01*
X011988Y009972D02*
X011611Y009972D01*
X011556Y010050D02*
X011974Y010050D01*
X011960Y010129D02*
X011439Y010129D01*
X011207Y010129D02*
X011153Y010129D01*
X011153Y010207D02*
X011941Y010207D01*
X011912Y010286D02*
X011153Y010286D01*
X011153Y010364D02*
X011884Y010364D01*
X011855Y010443D02*
X011153Y010443D01*
X011153Y010521D02*
X011826Y010521D01*
X011798Y010600D02*
X011153Y010600D01*
X011153Y010679D02*
X011769Y010679D01*
X011741Y010757D02*
X011153Y010757D01*
X011153Y010836D02*
X011707Y010836D01*
X011661Y010914D02*
X011151Y010914D01*
D21*
X011323Y009830D03*
X010223Y009480D03*
X010223Y008980D03*
X008473Y009180D03*
X007073Y011180D03*
X006873Y010480D03*
X005123Y009080D03*
X008323Y006980D03*
M02*
