G75*
G70*
%OFA0B0*%
%FSLAX24Y24*%
%IPPOS*%
%LPD*%
%AMOC8*
5,1,8,0,0,1.08239X$1,22.5*
%
%ADD10C,0.0080*%
%ADD11C,0.0030*%
%ADD12C,0.0160*%
%ADD13C,0.0060*%
%ADD14C,0.0020*%
D10*
X004704Y020939D02*
X005011Y020939D01*
X005165Y021092D01*
X005472Y021092D02*
X005625Y020939D01*
X005932Y020939D01*
X006086Y021092D01*
X006086Y021859D01*
X006393Y021859D02*
X006393Y020939D01*
X006853Y020939D01*
X007006Y021092D01*
X007006Y021399D01*
X006853Y021552D01*
X006393Y021552D01*
X005472Y021859D02*
X005472Y021092D01*
X005165Y021706D02*
X005011Y021859D01*
X004704Y021859D01*
X004551Y021706D01*
X004551Y021092D01*
X004704Y020939D01*
X007313Y020939D02*
X007620Y020939D01*
X007467Y020939D02*
X007467Y021552D01*
X007313Y021552D01*
X007467Y021859D02*
X007467Y022013D01*
X007927Y021706D02*
X007927Y021092D01*
X008081Y020939D01*
X008387Y020939D01*
X008541Y021092D01*
X008541Y021706D02*
X008387Y021859D01*
X008081Y021859D01*
X007927Y021706D01*
D11*
X004762Y005545D02*
X004515Y005545D01*
X004515Y005916D01*
X004883Y005916D02*
X004883Y005545D01*
X005130Y005545D01*
X005251Y005545D02*
X005437Y005545D01*
X005498Y005607D01*
X005498Y005854D01*
X005437Y005916D01*
X005251Y005916D01*
X005251Y005545D01*
X005006Y005731D02*
X004883Y005731D01*
X004883Y005916D02*
X005130Y005916D01*
X005620Y005854D02*
X005681Y005916D01*
X005805Y005916D01*
X005867Y005854D01*
X005867Y005792D01*
X005620Y005545D01*
X005867Y005545D01*
X007001Y005666D02*
X007001Y005295D01*
X007001Y005419D02*
X007187Y005419D01*
X007248Y005481D01*
X007248Y005604D01*
X007187Y005666D01*
X007001Y005666D01*
X007125Y005419D02*
X007248Y005295D01*
X007370Y005357D02*
X007431Y005295D01*
X007555Y005295D01*
X007617Y005357D01*
X007617Y005419D01*
X007555Y005481D01*
X007493Y005481D01*
X007555Y005481D02*
X007617Y005542D01*
X007617Y005604D01*
X007555Y005666D01*
X007431Y005666D01*
X007370Y005604D01*
X008501Y005545D02*
X008501Y005916D01*
X008687Y005916D01*
X008748Y005854D01*
X008748Y005731D01*
X008687Y005669D01*
X008501Y005669D01*
X008625Y005669D02*
X008748Y005545D01*
X008870Y005545D02*
X009117Y005792D01*
X009117Y005854D01*
X009055Y005916D01*
X008931Y005916D01*
X008870Y005854D01*
X008870Y005545D02*
X009117Y005545D01*
X005456Y007839D02*
X005333Y007715D01*
X005209Y007715D01*
X005086Y007839D01*
X005209Y007961D02*
X005456Y007961D01*
X005333Y007961D02*
X005209Y008084D01*
X005209Y008146D01*
X005271Y008268D02*
X005209Y008329D01*
X005209Y008453D01*
X005271Y008514D01*
X005333Y008514D01*
X005333Y008268D01*
X005394Y008268D02*
X005271Y008268D01*
X005394Y008268D02*
X005456Y008329D01*
X005456Y008453D01*
X005394Y008636D02*
X005271Y008636D01*
X005209Y008698D01*
X005209Y008883D01*
X005086Y008883D02*
X005456Y008883D01*
X005456Y008698D01*
X005394Y008636D01*
X005456Y009004D02*
X005333Y009128D01*
X005209Y009128D01*
X005086Y009004D01*
X004961Y009025D02*
X004900Y009087D01*
X004591Y009087D01*
X004591Y008901D01*
X004653Y008840D01*
X004776Y008840D01*
X004838Y008901D01*
X004838Y009087D01*
X004961Y009025D02*
X004961Y008963D01*
X004838Y008718D02*
X004653Y008718D01*
X004591Y008657D01*
X004591Y008471D01*
X004838Y008471D01*
X004776Y008350D02*
X004653Y008350D01*
X004591Y008288D01*
X004591Y008165D01*
X004653Y008103D01*
X004776Y008103D01*
X004838Y008165D01*
X004838Y008288D01*
X004776Y008350D01*
X004838Y007982D02*
X004838Y007735D01*
X004468Y007735D01*
X004488Y009459D02*
X004488Y009644D01*
X004549Y009706D01*
X004796Y009706D01*
X004858Y009644D01*
X004858Y009459D01*
X004488Y009459D01*
X004549Y009827D02*
X004488Y009889D01*
X004488Y010012D01*
X004549Y010074D01*
X004611Y010074D01*
X004858Y009827D01*
X004858Y010074D01*
X004646Y010695D02*
X004708Y010757D01*
X004708Y010881D01*
X004646Y010942D01*
X004708Y011064D02*
X004708Y011311D01*
X004708Y011187D02*
X004338Y011187D01*
X004461Y011064D01*
X004399Y010942D02*
X004338Y010881D01*
X004338Y010757D01*
X004399Y010695D01*
X004646Y010695D01*
X005680Y013374D02*
X005680Y013745D01*
X005803Y013621D01*
X005927Y013745D01*
X005927Y013374D01*
X006048Y013436D02*
X006110Y013374D01*
X006233Y013374D01*
X006295Y013436D01*
X006295Y013683D01*
X006233Y013745D01*
X006110Y013745D01*
X006048Y013683D01*
X006048Y013436D01*
X006416Y013436D02*
X006478Y013374D01*
X006601Y013374D01*
X006663Y013436D01*
X006663Y013498D01*
X006601Y013559D01*
X006478Y013559D01*
X006416Y013621D01*
X006416Y013683D01*
X006478Y013745D01*
X006601Y013745D01*
X006663Y013683D01*
X006785Y013745D02*
X007031Y013745D01*
X007153Y013745D02*
X007153Y013374D01*
X007400Y013374D01*
X007276Y013559D02*
X007153Y013559D01*
X007153Y013745D02*
X007400Y013745D01*
X007521Y013745D02*
X007768Y013745D01*
X007645Y013745D02*
X007645Y013374D01*
X006908Y013559D02*
X006785Y013559D01*
X006785Y013374D02*
X006785Y013745D01*
X008751Y016545D02*
X008937Y016545D01*
X008998Y016607D01*
X008998Y016854D01*
X008937Y016916D01*
X008751Y016916D01*
X008751Y016545D01*
X009120Y016545D02*
X009367Y016545D01*
X009243Y016545D02*
X009243Y016916D01*
X009120Y016792D01*
X012738Y014816D02*
X012985Y014816D01*
X012861Y014816D02*
X012861Y014445D01*
X013106Y014507D02*
X013168Y014445D01*
X013291Y014445D01*
X013353Y014507D01*
X013353Y014569D01*
X013291Y014631D01*
X013230Y014631D01*
X013291Y014631D02*
X013353Y014692D01*
X013353Y014754D01*
X013291Y014816D01*
X013168Y014816D01*
X013106Y014754D01*
X014299Y012824D02*
X014361Y012824D01*
X014423Y012762D01*
X014485Y012824D01*
X014546Y012824D01*
X014608Y012762D01*
X014608Y012639D01*
X014546Y012577D01*
X014423Y012701D02*
X014423Y012762D01*
X014299Y012824D02*
X014238Y012762D01*
X014238Y012639D01*
X014299Y012577D01*
X014238Y012456D02*
X014238Y012332D01*
X014238Y012394D02*
X014546Y012394D01*
X014608Y012332D01*
X014608Y012271D01*
X014546Y012209D01*
X013214Y011001D02*
X013214Y010939D01*
X013214Y011001D02*
X013152Y011063D01*
X012843Y011063D01*
X012843Y010877D01*
X012905Y010816D01*
X013029Y010816D01*
X013090Y010877D01*
X013090Y011063D01*
X013090Y011184D02*
X012843Y011184D01*
X012843Y011307D02*
X012843Y011369D01*
X012843Y011307D02*
X012967Y011184D01*
X013090Y011491D02*
X012843Y011491D01*
X012843Y011676D01*
X012905Y011738D01*
X013090Y011738D01*
X013090Y011859D02*
X012967Y011983D01*
X012843Y011983D01*
X012720Y011859D01*
X012720Y010694D02*
X012843Y010570D01*
X012967Y010570D01*
X013090Y010694D01*
X013090Y010080D02*
X013029Y010018D01*
X012782Y010018D01*
X012843Y009956D02*
X012843Y010080D01*
X012843Y009835D02*
X012843Y009773D01*
X012967Y009649D01*
X013090Y009649D02*
X012843Y009649D01*
X012905Y009528D02*
X012843Y009466D01*
X012843Y009343D01*
X012905Y009281D01*
X013029Y009281D01*
X013090Y009343D01*
X013090Y009466D01*
X013029Y009528D01*
X012905Y009528D01*
X012905Y009160D02*
X013090Y009160D01*
X012905Y009160D02*
X012843Y009098D01*
X012843Y008975D01*
X012905Y008913D01*
X012967Y008791D02*
X013029Y008791D01*
X013090Y008730D01*
X013090Y008606D01*
X013029Y008545D01*
X012905Y008606D02*
X012905Y008730D01*
X012967Y008791D01*
X013090Y008913D02*
X012720Y008913D01*
X012782Y008791D02*
X012720Y008730D01*
X012720Y008606D01*
X012782Y008545D01*
X012843Y008545D01*
X012905Y008606D01*
X013738Y007451D02*
X014108Y007451D01*
X014108Y007574D02*
X014108Y007327D01*
X014046Y007206D02*
X013799Y007206D01*
X013738Y007144D01*
X013738Y006959D01*
X014108Y006959D01*
X014108Y007144D01*
X014046Y007206D01*
X013861Y007327D02*
X013738Y007451D01*
X013738Y006837D02*
X013738Y006591D01*
X014108Y006591D01*
X014108Y006837D01*
X013923Y006714D02*
X013923Y006591D01*
X014108Y006469D02*
X014108Y006222D01*
X013738Y006222D01*
X014088Y008695D02*
X014088Y008881D01*
X014149Y008942D01*
X014273Y008942D01*
X014335Y008881D01*
X014335Y008695D01*
X014458Y008695D02*
X014088Y008695D01*
X014335Y008819D02*
X014458Y008942D01*
X014458Y009064D02*
X014458Y009311D01*
X014458Y009187D02*
X014088Y009187D01*
X014211Y009064D01*
X014296Y018459D02*
X014358Y018521D01*
X014358Y018582D01*
X014296Y018644D01*
X013988Y018644D01*
X013988Y018582D02*
X013988Y018706D01*
X014049Y018827D02*
X013988Y018889D01*
X013988Y019012D01*
X014049Y019074D01*
X014111Y019074D01*
X014358Y018827D01*
X014358Y019074D01*
X004858Y019074D02*
X004858Y018827D01*
X004858Y018951D02*
X004488Y018951D01*
X004611Y018827D01*
X004488Y018706D02*
X004488Y018582D01*
X004488Y018644D02*
X004796Y018644D01*
X004858Y018582D01*
X004858Y018521D01*
X004796Y018459D01*
D12*
X008356Y009930D02*
X008358Y009951D01*
X008363Y009971D01*
X008373Y009990D01*
X008385Y010007D01*
X008400Y010021D01*
X008418Y010033D01*
X008437Y010041D01*
X008457Y010046D01*
X008478Y010047D01*
X008499Y010044D01*
X008519Y010038D01*
X008537Y010028D01*
X008554Y010015D01*
X008568Y009999D01*
X008578Y009981D01*
X008586Y009961D01*
X008590Y009940D01*
X008590Y009920D01*
X008586Y009899D01*
X008578Y009879D01*
X008568Y009861D01*
X008554Y009845D01*
X008537Y009832D01*
X008519Y009822D01*
X008499Y009816D01*
X008478Y009813D01*
X008457Y009814D01*
X008437Y009819D01*
X008418Y009827D01*
X008400Y009839D01*
X008385Y009853D01*
X008373Y009870D01*
X008363Y009889D01*
X008358Y009909D01*
X008356Y009930D01*
D13*
X008973Y015680D02*
X009473Y015930D01*
X008973Y016180D01*
X008973Y015680D01*
X009473Y015680D02*
X009473Y016180D01*
D14*
X013013Y021190D02*
X012983Y021220D01*
X012983Y021281D01*
X013073Y021281D01*
X013103Y021251D01*
X013103Y021220D01*
X013073Y021190D01*
X013013Y021190D01*
X012983Y021281D02*
X013043Y021341D01*
X013103Y021371D01*
X013287Y021371D02*
X013167Y021190D01*
X013351Y021220D02*
X013381Y021190D01*
X013441Y021190D01*
X013471Y021220D01*
X013471Y021341D01*
X013441Y021371D01*
X013381Y021371D01*
X013351Y021341D01*
X013351Y021311D01*
X013381Y021281D01*
X013471Y021281D01*
X013535Y021190D02*
X013655Y021371D01*
X013720Y021341D02*
X013750Y021371D01*
X013810Y021371D01*
X013840Y021341D01*
X013840Y021311D01*
X013720Y021190D01*
X013840Y021190D01*
X013904Y021220D02*
X014024Y021341D01*
X014024Y021220D01*
X013994Y021190D01*
X013934Y021190D01*
X013904Y021220D01*
X013904Y021341D01*
X013934Y021371D01*
X013994Y021371D01*
X014024Y021341D01*
X014088Y021341D02*
X014118Y021371D01*
X014178Y021371D01*
X014208Y021341D01*
X014088Y021220D01*
X014118Y021190D01*
X014178Y021190D01*
X014208Y021220D01*
X014208Y021341D01*
X014272Y021341D02*
X014272Y021311D01*
X014302Y021281D01*
X014392Y021281D01*
X014392Y021341D02*
X014362Y021371D01*
X014302Y021371D01*
X014272Y021341D01*
X014392Y021341D02*
X014392Y021220D01*
X014362Y021190D01*
X014302Y021190D01*
X014272Y021220D01*
X014088Y021220D02*
X014088Y021341D01*
X014085Y021690D02*
X013965Y021690D01*
X014025Y021690D02*
X014025Y021871D01*
X013965Y021811D01*
X013901Y021841D02*
X013781Y021720D01*
X013811Y021690D01*
X013871Y021690D01*
X013901Y021720D01*
X013901Y021841D01*
X013871Y021871D01*
X013811Y021871D01*
X013781Y021841D01*
X013781Y021720D01*
X013719Y021720D02*
X013719Y021690D01*
X013689Y021690D01*
X013689Y021720D01*
X013719Y021720D01*
X013441Y021811D02*
X013381Y021690D01*
X013321Y021811D01*
X013256Y021781D02*
X013256Y021751D01*
X013136Y021751D01*
X013136Y021781D02*
X013166Y021811D01*
X013226Y021811D01*
X013256Y021781D01*
X013226Y021690D02*
X013166Y021690D01*
X013136Y021720D01*
X013136Y021781D01*
X013073Y021811D02*
X013043Y021811D01*
X012983Y021751D01*
X012983Y021811D02*
X012983Y021690D01*
M02*
