G75*
G70*
%OFA0B0*%
%FSLAX24Y24*%
%IPPOS*%
%LPD*%
%AMOC8*
5,1,8,0,0,1.08239X$1,22.5*
%
%ADD10R,0.0300X0.0580*%
%ADD11R,0.0580X0.0300*%
%ADD12R,0.0513X0.0474*%
%ADD13R,0.0395X0.0552*%
%ADD14R,0.0946X0.0631*%
%ADD15R,0.0434X0.0631*%
%ADD16R,0.0237X0.0182*%
%ADD17R,0.1025X0.0356*%
%ADD18R,0.0986X0.0671*%
D10*
X007991Y007960D03*
X008306Y007960D03*
X008621Y007960D03*
X008936Y007960D03*
X009250Y007960D03*
X009565Y007960D03*
X009880Y007960D03*
X010195Y007960D03*
X010195Y011340D03*
X009880Y011340D03*
X009565Y011340D03*
X009250Y011340D03*
X008936Y011340D03*
X008621Y011340D03*
X008306Y011340D03*
X007991Y011340D03*
D11*
X007403Y010753D03*
X007403Y010438D03*
X007403Y010123D03*
X007403Y009808D03*
X007403Y009493D03*
X007403Y009178D03*
X007403Y008863D03*
X007403Y008548D03*
X010783Y008548D03*
X010783Y008863D03*
X010783Y009178D03*
X010783Y009493D03*
X010783Y009808D03*
X010783Y010123D03*
X010783Y010438D03*
X010783Y010753D03*
D12*
X009538Y012165D03*
X008868Y012165D03*
D13*
G36*
X011195Y008085D02*
X011196Y007692D01*
X010645Y007691D01*
X010644Y008084D01*
X011195Y008085D01*
G37*
G36*
X011196Y007376D02*
X011197Y006983D01*
X010646Y006982D01*
X010645Y007375D01*
X011196Y007376D01*
G37*
X009892Y007110D03*
X009184Y007110D03*
G36*
X008500Y006731D02*
X008499Y006338D01*
X007948Y006339D01*
X007949Y006732D01*
X008500Y006731D01*
G37*
G36*
X008498Y006022D02*
X008497Y005629D01*
X007946Y005630D01*
X007947Y006023D01*
X008498Y006022D01*
G37*
D14*
X007787Y012160D03*
D15*
X006783Y012160D03*
D16*
X006888Y006458D03*
X007223Y006458D03*
X007558Y006458D03*
X007558Y005903D03*
X007223Y005903D03*
X006888Y005903D03*
X008888Y005903D03*
X009223Y005903D03*
X009558Y005903D03*
X009558Y006458D03*
X009223Y006458D03*
X008888Y006458D03*
D17*
X006295Y008295D03*
X006295Y008885D03*
X006295Y009476D03*
X006295Y010066D03*
D18*
X005725Y007488D03*
X005725Y010873D03*
M02*
