G75*
G70*
%OFA0B0*%
%FSLAX24Y24*%
%IPPOS*%
%LPD*%
%AMOC8*
5,1,8,0,0,1.08239X$1,22.5*
%
%ADD10C,0.0000*%
%ADD11R,0.0472X0.0315*%
%ADD12R,0.0315X0.0472*%
%ADD13R,0.0551X0.0551*%
%ADD14R,0.0472X0.0472*%
%ADD15R,0.0315X0.0354*%
%ADD16R,0.0394X0.0433*%
%ADD17R,0.0500X0.0220*%
%ADD18R,0.0220X0.0500*%
D10*
X004112Y009111D02*
X004112Y016198D01*
X011199Y016198D01*
X011199Y009111D01*
X004112Y009111D01*
D11*
X004703Y009741D03*
X004703Y010450D03*
X005884Y010450D03*
X005884Y009741D03*
X005884Y011985D03*
X005884Y012694D03*
X005884Y015056D03*
X005884Y015765D03*
X007459Y015765D03*
X007459Y015056D03*
X010608Y015056D03*
X010608Y015765D03*
D12*
G36*
X008798Y015608D02*
X008797Y015921D01*
X009268Y015922D01*
X009269Y015609D01*
X008798Y015608D01*
G37*
G36*
X008799Y014899D02*
X008798Y015212D01*
X009269Y015213D01*
X009270Y014900D01*
X008799Y014899D01*
G37*
D13*
X004801Y014190D03*
X004801Y015686D03*
D14*
X006671Y015430D03*
X006671Y014603D03*
X008246Y014603D03*
X008246Y015430D03*
X009821Y015430D03*
X009821Y014603D03*
D15*
X005372Y011080D03*
X004998Y011906D03*
X004624Y011080D03*
D16*
X004801Y012714D03*
X004801Y013383D03*
D17*
X006654Y013068D03*
X006654Y012753D03*
X006654Y012438D03*
X006654Y012123D03*
X006654Y011808D03*
X006654Y011493D03*
X006654Y011178D03*
X006654Y010863D03*
X010034Y010863D03*
X010034Y011178D03*
X010034Y011493D03*
X010034Y011808D03*
X010034Y012123D03*
X010034Y012438D03*
X010034Y012753D03*
X010034Y013068D03*
D18*
X009447Y013656D03*
X009132Y013656D03*
X008817Y013656D03*
X008502Y013656D03*
X008187Y013656D03*
X007872Y013656D03*
X007557Y013656D03*
X007242Y013656D03*
X007242Y010276D03*
X007557Y010276D03*
X007872Y010276D03*
X008187Y010276D03*
X008502Y010276D03*
X008817Y010276D03*
X009132Y010276D03*
X009447Y010276D03*
M02*
