G75*
G70*
%OFA0B0*%
%FSLAX24Y24*%
%IPPOS*%
%LPD*%
%AMOC8*
5,1,8,0,0,1.08239X$1,22.5*
%
%ADD10C,0.0060*%
%ADD11C,0.0020*%
%ADD12C,0.0000*%
%ADD13C,0.0040*%
%ADD14C,0.0050*%
%ADD15C,0.0039*%
D10*
X006341Y015258D02*
X006234Y015364D01*
X006341Y015258D02*
X006555Y015258D01*
X006661Y015364D01*
X006661Y015791D01*
X006555Y015898D01*
X006341Y015898D01*
X006234Y015791D01*
X006878Y015258D02*
X007091Y015258D01*
X006984Y015258D02*
X006984Y015685D01*
X007091Y015685D01*
X006984Y015898D02*
X006984Y016005D01*
X007309Y015578D02*
X007415Y015685D01*
X007736Y015685D01*
X007736Y015898D02*
X007736Y015258D01*
X007415Y015258D01*
X007309Y015364D01*
X007309Y015578D01*
X007953Y015364D02*
X008060Y015258D01*
X008273Y015258D01*
X008380Y015364D01*
X008380Y015898D01*
X008598Y015791D02*
X008704Y015898D01*
X008918Y015898D01*
X009025Y015791D01*
X009025Y015364D01*
X008918Y015258D01*
X008704Y015258D01*
X008598Y015364D01*
X007953Y015364D02*
X007953Y015898D01*
D11*
X008116Y015010D02*
X008236Y015010D01*
X008176Y015010D02*
X008176Y014830D01*
X008052Y014860D02*
X008022Y014890D01*
X007932Y014890D01*
X007932Y014920D02*
X007932Y014830D01*
X008022Y014830D01*
X008052Y014860D01*
X008022Y014950D02*
X007962Y014950D01*
X007932Y014920D01*
X007868Y014920D02*
X007868Y014860D01*
X007838Y014830D01*
X007748Y014830D01*
X007654Y014860D02*
X007654Y014980D01*
X007684Y014950D02*
X007624Y014950D01*
X007561Y014920D02*
X007561Y014860D01*
X007531Y014830D01*
X007471Y014830D01*
X007441Y014860D01*
X007441Y014920D01*
X007471Y014950D01*
X007531Y014950D01*
X007561Y014920D01*
X007624Y014830D02*
X007654Y014860D01*
X007748Y014950D02*
X007838Y014950D01*
X007868Y014920D01*
X007898Y014556D02*
X007838Y014436D01*
X007778Y014556D01*
X007962Y014526D02*
X007962Y014496D01*
X008083Y014496D01*
X008083Y014466D02*
X008083Y014526D01*
X008053Y014556D01*
X007993Y014556D01*
X007962Y014526D01*
X007993Y014436D02*
X008053Y014436D01*
X008083Y014466D01*
X008146Y014556D02*
X008176Y014556D01*
X008236Y014496D01*
X008236Y014436D02*
X008236Y014556D01*
X007530Y014466D02*
X007500Y014466D01*
X007500Y014436D01*
X007530Y014436D01*
X007530Y014466D01*
X007438Y014466D02*
X007438Y014586D01*
X007408Y014616D01*
X007348Y014616D01*
X007318Y014586D01*
X007438Y014466D01*
X007408Y014436D01*
X007348Y014436D01*
X007318Y014466D01*
X007318Y014586D01*
X007254Y014586D02*
X007224Y014616D01*
X007164Y014616D01*
X007134Y014586D01*
X007134Y014556D01*
X007254Y014436D01*
X007134Y014436D01*
X007377Y014830D02*
X007377Y014950D01*
X007377Y014890D02*
X007317Y014950D01*
X007287Y014950D01*
D12*
X004112Y016198D02*
X004112Y009111D01*
X011199Y009111D01*
X011199Y016198D01*
X004112Y016198D01*
D13*
X004131Y014573D02*
X004478Y014573D01*
X004647Y014573D02*
X004647Y014139D01*
X004734Y014052D01*
X004907Y014052D01*
X004994Y014139D01*
X004994Y014573D01*
X005163Y014486D02*
X005249Y014573D01*
X005423Y014573D01*
X005509Y014486D01*
X005509Y014139D01*
X005423Y014052D01*
X005249Y014052D01*
X005163Y014139D01*
X005163Y014486D01*
X004305Y014573D02*
X004305Y014052D01*
X010055Y014052D02*
X010055Y014573D01*
X010402Y014573D02*
X010055Y014052D01*
X010402Y014052D02*
X010402Y014573D01*
X010572Y014573D02*
X010746Y014573D01*
X010659Y014573D02*
X010659Y014052D01*
X010746Y014052D02*
X010572Y014052D01*
D14*
X009624Y013717D02*
X008876Y013717D01*
X008876Y013403D01*
X008876Y010489D02*
X008876Y010174D01*
X009624Y010174D01*
X006514Y010174D02*
X006514Y010489D01*
X006514Y010174D02*
X005766Y010174D01*
X006514Y013403D02*
X006514Y013717D01*
X005766Y013717D01*
D15*
X007952Y009603D02*
X007954Y009636D01*
X007960Y009668D01*
X007969Y009700D01*
X007983Y009730D01*
X007999Y009758D01*
X008019Y009784D01*
X008042Y009808D01*
X008068Y009829D01*
X008096Y009846D01*
X008126Y009861D01*
X008157Y009871D01*
X008189Y009878D01*
X008222Y009881D01*
X008255Y009880D01*
X008287Y009875D01*
X008319Y009866D01*
X008350Y009854D01*
X008378Y009838D01*
X008405Y009819D01*
X008429Y009797D01*
X008451Y009772D01*
X008469Y009744D01*
X008484Y009715D01*
X008496Y009684D01*
X008504Y009652D01*
X008508Y009619D01*
X008508Y009587D01*
X008504Y009554D01*
X008496Y009522D01*
X008484Y009491D01*
X008469Y009462D01*
X008451Y009434D01*
X008429Y009409D01*
X008405Y009387D01*
X008378Y009368D01*
X008350Y009352D01*
X008319Y009340D01*
X008287Y009331D01*
X008255Y009326D01*
X008222Y009325D01*
X008189Y009328D01*
X008157Y009335D01*
X008126Y009345D01*
X008096Y009360D01*
X008068Y009377D01*
X008042Y009398D01*
X008019Y009422D01*
X007999Y009448D01*
X007983Y009476D01*
X007969Y009506D01*
X007960Y009538D01*
X007954Y009570D01*
X007952Y009603D01*
M02*
