G75*
G70*
%OFA0B0*%
%FSLAX24Y24*%
%IPPOS*%
%LPD*%
%AMOC8*
5,1,8,0,0,1.08239X$1,22.5*
%
%ADD10C,0.0000*%
%ADD11C,0.0010*%
%ADD12C,0.0060*%
%ADD13R,0.0059X0.0118*%
%ADD14R,0.0118X0.0118*%
%ADD15C,0.0030*%
%ADD16C,0.0080*%
%ADD17C,0.0039*%
D10*
X004112Y009111D02*
X004112Y016198D01*
X011199Y016198D01*
X011199Y009111D01*
X004112Y009111D01*
D11*
X004477Y009182D02*
X004477Y009332D01*
X004552Y009332D01*
X004577Y009307D01*
X004577Y009257D01*
X004552Y009232D01*
X004477Y009232D01*
X004527Y009232D02*
X004577Y009182D01*
X004624Y009257D02*
X004724Y009257D01*
X004699Y009182D02*
X004699Y009332D01*
X004624Y009257D01*
X005196Y010482D02*
X005171Y010507D01*
X005171Y010607D01*
X005196Y010632D01*
X005246Y010632D01*
X005271Y010607D01*
X005271Y010507D01*
X005246Y010482D01*
X005196Y010482D01*
X005221Y010532D02*
X005271Y010482D01*
X005318Y010482D02*
X005419Y010482D01*
X005368Y010482D02*
X005368Y010632D01*
X005318Y010582D01*
X005772Y011451D02*
X005822Y011451D01*
X005847Y011476D01*
X005895Y011451D02*
X005995Y011451D01*
X005945Y011451D02*
X005945Y011602D01*
X005895Y011552D01*
X005847Y011577D02*
X005822Y011602D01*
X005772Y011602D01*
X005747Y011577D01*
X005747Y011476D01*
X005772Y011451D01*
X005737Y009332D02*
X005812Y009332D01*
X005837Y009307D01*
X005837Y009257D01*
X005812Y009232D01*
X005737Y009232D01*
X005737Y009182D02*
X005737Y009332D01*
X005787Y009232D02*
X005837Y009182D01*
X005884Y009207D02*
X005909Y009182D01*
X005959Y009182D01*
X005984Y009207D01*
X005984Y009257D01*
X005959Y009282D01*
X005934Y009282D01*
X005884Y009257D01*
X005884Y009332D01*
X005984Y009332D01*
X005408Y013641D02*
X005308Y013641D01*
X005358Y013641D02*
X005358Y013791D01*
X005308Y013741D01*
X005261Y013766D02*
X005236Y013791D01*
X005161Y013791D01*
X005161Y013641D01*
X005236Y013641D01*
X005261Y013666D01*
X005261Y013766D01*
X005772Y014562D02*
X005822Y014562D01*
X005847Y014587D01*
X005895Y014587D02*
X005920Y014562D01*
X005970Y014562D01*
X005995Y014587D01*
X005995Y014612D01*
X005970Y014637D01*
X005945Y014637D01*
X005970Y014637D02*
X005995Y014662D01*
X005995Y014687D01*
X005970Y014712D01*
X005920Y014712D01*
X005895Y014687D01*
X005847Y014687D02*
X005822Y014712D01*
X005772Y014712D01*
X005747Y014687D01*
X005747Y014587D01*
X005772Y014562D01*
X006238Y014197D02*
X006238Y014047D01*
X006338Y014047D02*
X006338Y014197D01*
X006288Y014147D01*
X006238Y014197D01*
X006385Y014122D02*
X006385Y014072D01*
X006410Y014047D01*
X006460Y014047D01*
X006485Y014072D01*
X006485Y014122D01*
X006460Y014147D01*
X006410Y014147D01*
X006385Y014122D01*
X006532Y014147D02*
X006582Y014147D01*
X006557Y014172D02*
X006557Y014072D01*
X006582Y014047D01*
X006630Y014072D02*
X006655Y014047D01*
X006706Y014047D01*
X006731Y014072D01*
X006731Y014122D01*
X006706Y014147D01*
X006655Y014147D01*
X006630Y014122D01*
X006630Y014072D01*
X006778Y014097D02*
X006828Y014147D01*
X006853Y014147D01*
X006778Y014147D02*
X006778Y014047D01*
X007366Y014665D02*
X007366Y014815D01*
X007441Y014815D01*
X007466Y014790D01*
X007466Y014740D01*
X007441Y014715D01*
X007366Y014715D01*
X007416Y014715D02*
X007466Y014665D01*
X007513Y014665D02*
X007613Y014665D01*
X007563Y014665D02*
X007563Y014815D01*
X007513Y014765D01*
X007852Y014224D02*
X007852Y014074D01*
X007952Y014074D01*
X007999Y014074D02*
X007999Y014174D01*
X007999Y014124D02*
X008049Y014174D01*
X008074Y014174D01*
X008122Y014174D02*
X008122Y014074D01*
X008122Y014124D02*
X008172Y014174D01*
X008197Y014174D01*
X008245Y014149D02*
X008270Y014174D01*
X008320Y014174D01*
X008345Y014149D01*
X008345Y014099D01*
X008320Y014074D01*
X008270Y014074D01*
X008245Y014099D01*
X008245Y014149D01*
X008392Y014124D02*
X008442Y014174D01*
X008467Y014174D01*
X008392Y014174D02*
X008392Y014074D01*
X007952Y014224D02*
X007852Y014224D01*
X007852Y014149D02*
X007902Y014149D01*
X008941Y014664D02*
X008941Y014814D01*
X009016Y014815D01*
X009041Y014790D01*
X009041Y014739D01*
X009016Y014714D01*
X008941Y014714D01*
X008991Y014714D02*
X009041Y014664D01*
X009088Y014665D02*
X009188Y014765D01*
X009188Y014790D01*
X009163Y014815D01*
X009113Y014815D01*
X009088Y014790D01*
X009088Y014665D02*
X009188Y014665D01*
X009329Y014224D02*
X009304Y014199D01*
X009304Y014174D01*
X009329Y014149D01*
X009379Y014149D01*
X009404Y014124D01*
X009404Y014099D01*
X009379Y014074D01*
X009329Y014074D01*
X009304Y014099D01*
X009329Y014224D02*
X009379Y014224D01*
X009404Y014199D01*
X009451Y014174D02*
X009501Y014174D01*
X009476Y014199D02*
X009476Y014099D01*
X009501Y014074D01*
X009549Y014099D02*
X009574Y014124D01*
X009649Y014124D01*
X009649Y014149D02*
X009649Y014074D01*
X009574Y014074D01*
X009549Y014099D01*
X009574Y014174D02*
X009624Y014174D01*
X009649Y014149D01*
X009697Y014174D02*
X009747Y014174D01*
X009722Y014199D02*
X009722Y014099D01*
X009747Y014074D01*
X009795Y014099D02*
X009820Y014074D01*
X009895Y014074D01*
X009895Y014174D01*
X009942Y014149D02*
X009967Y014174D01*
X010042Y014174D01*
X010017Y014124D02*
X009967Y014124D01*
X009942Y014149D01*
X009942Y014074D02*
X010017Y014074D01*
X010042Y014099D01*
X010017Y014124D01*
X009795Y014099D02*
X009795Y014174D01*
X010515Y014665D02*
X010515Y014815D01*
X010590Y014815D01*
X010615Y014790D01*
X010615Y014740D01*
X010590Y014715D01*
X010515Y014715D01*
X010565Y014715D02*
X010615Y014665D01*
X010663Y014690D02*
X010688Y014665D01*
X010738Y014665D01*
X010763Y014690D01*
X010763Y014715D01*
X010738Y014740D01*
X010713Y014740D01*
X010738Y014740D02*
X010763Y014765D01*
X010763Y014790D01*
X010738Y014815D01*
X010688Y014815D01*
X010663Y014790D01*
D12*
X010844Y015292D02*
X010844Y015529D01*
X010372Y015529D02*
X010372Y015292D01*
X009270Y015293D02*
X009269Y015529D01*
X008797Y015528D02*
X008797Y015292D01*
X007695Y015292D02*
X007695Y015529D01*
X007222Y015529D02*
X007222Y015292D01*
X006120Y015292D02*
X006120Y015529D01*
X005648Y015529D02*
X005648Y015292D01*
X007104Y013345D02*
X006964Y013206D01*
X006964Y010586D01*
X009724Y010586D01*
X009724Y013345D01*
X007104Y013345D01*
X007123Y013046D02*
X007125Y013069D01*
X007131Y013092D01*
X007140Y013113D01*
X007153Y013133D01*
X007169Y013150D01*
X007187Y013164D01*
X007207Y013175D01*
X007229Y013183D01*
X007252Y013187D01*
X007276Y013187D01*
X007299Y013183D01*
X007321Y013175D01*
X007341Y013164D01*
X007359Y013150D01*
X007375Y013133D01*
X007388Y013113D01*
X007397Y013092D01*
X007403Y013069D01*
X007405Y013046D01*
X007403Y013023D01*
X007397Y013000D01*
X007388Y012979D01*
X007375Y012959D01*
X007359Y012942D01*
X007341Y012928D01*
X007321Y012917D01*
X007299Y012909D01*
X007276Y012905D01*
X007252Y012905D01*
X007229Y012909D01*
X007207Y012917D01*
X007187Y012928D01*
X007169Y012942D01*
X007153Y012959D01*
X007140Y012979D01*
X007131Y013000D01*
X007125Y013023D01*
X007123Y013046D01*
X006120Y012458D02*
X006120Y012221D01*
X005648Y012221D02*
X005648Y012458D01*
X005648Y010214D02*
X005648Y009977D01*
X006120Y009977D02*
X006120Y010214D01*
X004939Y010214D02*
X004939Y009977D01*
X004466Y009977D02*
X004466Y010214D01*
D13*
X006435Y015076D03*
X006907Y015076D03*
X008010Y015076D03*
X008482Y015076D03*
X009585Y015076D03*
X010057Y015076D03*
D14*
X009821Y015076D03*
X008246Y015076D03*
X006671Y015076D03*
D15*
X006310Y014340D02*
X006310Y014093D01*
X006433Y014217D02*
X006186Y014217D01*
X007761Y014217D02*
X008008Y014217D01*
X007884Y014340D02*
X007884Y014093D01*
X009336Y014217D02*
X009583Y014217D01*
X009459Y014340D02*
X009459Y014093D01*
D16*
X005549Y011749D02*
X005549Y011434D01*
X005549Y011749D02*
X005313Y011749D01*
X004683Y011749D02*
X004447Y011749D01*
X004447Y011434D01*
D17*
X007952Y009603D02*
X007954Y009636D01*
X007960Y009668D01*
X007969Y009700D01*
X007983Y009730D01*
X007999Y009758D01*
X008019Y009784D01*
X008042Y009808D01*
X008068Y009829D01*
X008096Y009846D01*
X008126Y009861D01*
X008157Y009871D01*
X008189Y009878D01*
X008222Y009881D01*
X008255Y009880D01*
X008287Y009875D01*
X008319Y009866D01*
X008350Y009854D01*
X008378Y009838D01*
X008405Y009819D01*
X008429Y009797D01*
X008451Y009772D01*
X008469Y009744D01*
X008484Y009715D01*
X008496Y009684D01*
X008504Y009652D01*
X008508Y009619D01*
X008508Y009587D01*
X008504Y009554D01*
X008496Y009522D01*
X008484Y009491D01*
X008469Y009462D01*
X008451Y009434D01*
X008429Y009409D01*
X008405Y009387D01*
X008378Y009368D01*
X008350Y009352D01*
X008319Y009340D01*
X008287Y009331D01*
X008255Y009326D01*
X008222Y009325D01*
X008189Y009328D01*
X008157Y009335D01*
X008126Y009345D01*
X008096Y009360D01*
X008068Y009377D01*
X008042Y009398D01*
X008019Y009422D01*
X007999Y009448D01*
X007983Y009476D01*
X007969Y009506D01*
X007960Y009538D01*
X007954Y009570D01*
X007952Y009603D01*
M02*
